<?xml version="1.0" encoding="UTF-8"?>
<svg width="76px" height="76px" viewBox="0 0 76 76" version="1.1" xmlns="http://www.w3.org/2000/svg"
     xmlns:xlink="http://www.w3.org/1999/xlink">
    <!-- Generator: Sketch 49.1 (51147) - http://www.bohemiancoding.com/sketch -->
    <title>Blank Profile Picture / Organization</title>
    <desc>Created with Sketch.</desc>
    <defs></defs>
    <g id="Blank-Profile-Picture-/-Organization" stroke="none" stroke-width="1" fill="none" fill-rule="evenodd">
        <g>
            <rect id="bkgd" fill="#EBECF0" x="0" y="0" width="76" height="76" rx="38"></rect>
            <g id="building" transform="translate(20.000000, 17.000000)" fill="#AEB4B7" fill-rule="nonzero">
                <path d="M35.6919192,38.0973451 L34.010101,38.0973451 L34.010101,2.04424779 C34.010101,0.92920354 33.0757576,0 31.9545455,0 L4.48484848,0 C3.36363636,0 2.42929293,0.92920354 2.42929293,2.04424779 L2.42929293,38.0973451 L0.934343434,38.0973451 C0.373737374,38.0973451 0,38.4690265 0,39.0265487 L0,42 L37,42 L37,39.0265487 C36.8131313,38.4690265 36.2525253,38.0973451 35.6919192,38.0973451 Z M10.4646465,9.10619469 C10.4646465,8.54867257 10.8383838,8.17699115 11.3989899,8.17699115 L14.7626263,8.17699115 C15.3232323,8.17699115 15.6969697,8.54867257 15.6969697,9.10619469 L15.6969697,12.4513274 C15.6969697,13.0088496 15.3232323,13.380531 14.7626263,13.380531 L11.3989899,13.380531 C10.8383838,13.380531 10.4646465,13.0088496 10.4646465,12.4513274 L10.4646465,9.10619469 Z M10.4646465,16.9115044 C10.4646465,16.3539823 10.8383838,15.9823009 11.3989899,15.9823009 L14.7626263,15.9823009 C15.3232323,15.9823009 15.6969697,16.3539823 15.6969697,16.9115044 L15.6969697,20.2566372 C15.6969697,20.8141593 15.3232323,21.1858407 14.7626263,21.1858407 L11.3989899,21.1858407 C10.8383838,21.1858407 10.4646465,20.8141593 10.4646465,20.2566372 L10.4646465,16.9115044 Z M14.7626263,29.1769912 L11.3989899,29.1769912 C10.8383838,29.1769912 10.4646465,28.8053097 10.4646465,28.2477876 L10.4646465,24.9026549 C10.4646465,24.3451327 10.8383838,23.9734513 11.3989899,23.9734513 L14.7626263,23.9734513 C15.3232323,23.9734513 15.6969697,24.3451327 15.6969697,24.9026549 L15.6969697,28.2477876 C15.6969697,28.619469 15.3232323,29.1769912 14.7626263,29.1769912 Z M20.9292929,38.0973451 L15.6969697,38.0973451 L15.6969697,32.7079646 C15.6969697,32.1504425 16.0707071,31.7787611 16.6313131,31.7787611 L19.9949495,31.7787611 C20.5555556,31.7787611 20.9292929,32.1504425 20.9292929,32.7079646 L20.9292929,38.0973451 Z M26.1616162,28.0619469 C26.1616162,28.619469 25.7878788,28.9911504 25.2272727,28.9911504 L21.8636364,28.9911504 C21.3030303,28.9911504 20.9292929,28.619469 20.9292929,28.0619469 L20.9292929,24.7168142 C20.9292929,24.159292 21.3030303,23.7876106 21.8636364,23.7876106 L25.2272727,23.7876106 C25.7878788,23.7876106 26.1616162,24.159292 26.1616162,24.7168142 L26.1616162,28.0619469 Z M26.1616162,20.2566372 C26.1616162,20.8141593 25.7878788,21.1858407 25.2272727,21.1858407 L21.8636364,21.1858407 C21.3030303,21.1858407 20.9292929,20.8141593 20.9292929,20.2566372 L20.9292929,16.9115044 C20.9292929,16.3539823 21.3030303,15.9823009 21.8636364,15.9823009 L25.2272727,15.9823009 C25.7878788,15.9823009 26.1616162,16.3539823 26.1616162,16.9115044 L26.1616162,20.2566372 Z M26.1616162,12.4513274 C26.1616162,13.0088496 25.7878788,13.380531 25.2272727,13.380531 L21.8636364,13.380531 C21.3030303,13.380531 20.9292929,13.0088496 20.9292929,12.4513274 L20.9292929,9.10619469 C20.9292929,8.54867257 21.3030303,8.17699115 21.8636364,8.17699115 L25.2272727,8.17699115 C25.7878788,8.17699115 26.1616162,8.54867257 26.1616162,9.10619469 L26.1616162,12.4513274 Z"
                      id="Shape"></path>
            </g>
        </g>
    </g>
</svg>